<mxfile host="www.draw.io" modified="2020-01-25T08:49:49.039Z" agent="Mozilla/5.0 (Windows NT 6.1; Win64; x64; rv:72.0) Gecko/20100101 Firefox/72.0" etag="hj0e6ff5_qL-hXSbuV1O" version="12.5.6" type="github">
  <diagram id="pACKgUzahvFNp4n4CFaf" name="Page-1">
    <mxGraphModel dx="1422" dy="830" grid="1" gridSize="10" guides="1" tooltips="1" connect="1" arrows="1" fold="1" page="1" pageScale="1" pageWidth="827" pageHeight="1169" math="0" shadow="0">
      <root>
        <mxCell id="0"/>
        <mxCell id="1" parent="0"/>
        <mxCell id="axH6CNjueqvEyklHriQj-1" value="&lt;div&gt;开始模块&lt;/div&gt;" style="rounded=0;whiteSpace=wrap;html=1;" parent="1" vertex="1">
          <mxGeometry x="310" y="100" width="120" height="60" as="geometry"/>
        </mxCell>
        <mxCell id="axH6CNjueqvEyklHriQj-3" style="edgeStyle=orthogonalEdgeStyle;rounded=0;orthogonalLoop=1;jettySize=auto;html=1;" parent="1" source="axH6CNjueqvEyklHriQj-2" edge="1">
          <mxGeometry relative="1" as="geometry">
            <mxPoint x="170" y="69" as="targetPoint"/>
          </mxGeometry>
        </mxCell>
        <mxCell id="axH6CNjueqvEyklHriQj-5" value="" style="edgeStyle=orthogonalEdgeStyle;rounded=0;orthogonalLoop=1;jettySize=auto;html=1;" parent="1" source="axH6CNjueqvEyklHriQj-2" target="axH6CNjueqvEyklHriQj-1" edge="1">
          <mxGeometry relative="1" as="geometry"/>
        </mxCell>
        <mxCell id="axH6CNjueqvEyklHriQj-2" value="Text" style="text;html=1;align=center;verticalAlign=middle;resizable=0;points=[];autosize=1;" parent="1" vertex="1">
          <mxGeometry x="253" y="59" width="40" height="20" as="geometry"/>
        </mxCell>
        <mxCell id="axH6CNjueqvEyklHriQj-6" value="&lt;h1&gt;Heading&lt;/h1&gt;&lt;p&gt;Lorem ipsum dolor sit amet, consectetur adipisicing elit, sed do eiusmod tempor incididunt ut labore et dolore magna aliqua.&lt;/p&gt;" style="text;html=1;strokeColor=none;fillColor=none;spacing=5;spacingTop=-20;whiteSpace=wrap;overflow=hidden;rounded=0;" parent="1" vertex="1">
          <mxGeometry x="293" y="70" width="190" height="30" as="geometry"/>
        </mxCell>
        <mxCell id="537cKmrYjI38TPrwsnv6-1" value="&lt;div&gt;第一步&lt;/div&gt;" style="ellipse;whiteSpace=wrap;html=1;aspect=fixed;" vertex="1" parent="1">
          <mxGeometry x="330" y="300" width="80" height="80" as="geometry"/>
        </mxCell>
        <mxCell id="537cKmrYjI38TPrwsnv6-3" value="" style="endArrow=classic;html=1;exitX=0.5;exitY=1;exitDx=0;exitDy=0;" edge="1" parent="1" source="axH6CNjueqvEyklHriQj-1" target="537cKmrYjI38TPrwsnv6-1">
          <mxGeometry width="50" height="50" relative="1" as="geometry">
            <mxPoint x="160" y="450" as="sourcePoint"/>
            <mxPoint x="210" y="400" as="targetPoint"/>
          </mxGeometry>
        </mxCell>
      </root>
    </mxGraphModel>
  </diagram>
</mxfile>
